<svg xmlns="http://www.w3.org/2000/svg" version="1.1" xmlns:xlink="http://www.w3.org/1999/xlink" width="64" height="64"><svg class="logo-svg w-16 h-16 text-[#007BFF]" viewBox="0 0 64 64" fill="#007BFF" xmlns="http://www.w3.org/2000/svg">
                        <title>Selearn Logo Mark</title>
                        <!-- This path combines a wave (top curve) with the corner of a book page (bottom right), representing a sea of knowledge. -->
                        <path d="M52.3,4.1C44.8,1.4,36.5,3,30.3,8.3C22.6,14.8,19,25.4,22.2,34.9c2,5.8,6.2,10.6,11.8,13.4c-3.8-2.6-6.6-6.3-8.2-10.7C22.4,28,25.2,19.3,31.4,14c5.1-4.4,11.9-6.3,18.4-4.5V60L62,48V12C58.8,10.1,55.5,7.2,52.3,4.1Z"></path>
                        <!-- This small shape represents a foundational piece of knowledge or a drop in the sea. -->
                        <path d="M12,48.1c-2.2,0-4,1.8-4,4s1.8,4,4,4s4-1.8,4-4S14.2,48.1,12,48.1Z"></path>
                    </svg><style>@media (prefers-color-scheme: light) { :root { filter: none; } }
@media (prefers-color-scheme: dark) { :root { filter: none; } }
</style></svg>